<?xml version="1.0" encoding="UTF-8" standalone="no"?>
<!-- Created with Inkscape (http://www.inkscape.org/) -->

<svg
   width="210mm"
   height="297mm"
   viewBox="0 0 210 297"
   version="1.1"
   id="svg5"
   xmlns="http://www.w3.org/2000/svg"
   xmlns:svg="http://www.w3.org/2000/svg">
  <defs
     id="defs2" />
  <g
     id="layer1">
    <ellipse
       style="fill:#ff4500;fill-opacity:0.32105264;stroke:#ffffff;stroke-width:0.1;stroke-miterlimit:10;stroke-dasharray:0.3, 0.3;stroke-dashoffset:0.9"
       id="path1200"
       cx="104.17174"
       cy="153.61464"
       rx="76.21093"
       ry="76.210503" />
    <path
       style="fill:#ff4500;stroke-width:0.172289;fill-opacity:1"
       d="M 104.57199,215.5742 H 74.86981 l -0.092,-1.59368 c -0.0506,-0.87652 -0.0568,-1.65182 -0.0137,-1.72288 0.043,-0.0711 0.5195,-0.13207 1.05877,-0.13555 0.53928,-0.003 1.48444,-0.11157 2.10038,-0.2402 0.61593,-0.12862 2.39912,-0.50882 3.96264,-0.84489 1.56352,-0.33607 3.77313,-0.81357 4.91023,-1.06112 1.13711,-0.24754 2.997831,-0.68422 4.134941,-0.97038 1.13711,-0.28617 3.26918,-0.85816 4.73794,-1.27109 1.46877,-0.41294 3.63961,-0.98436 4.824089,-1.26983 1.18449,-0.28548 2.50801,-0.56893 2.94116,-0.62989 0.4525,-0.0637 1.11219,-0.0216 1.5506,0.0988 0.5705,0.15673 3.84988,0.20296 12.99557,0.18321 11.52171,-0.0249 12.34687,-0.006 14.20064,0.31759 1.08246,0.18921 2.0284,0.40428 2.10207,0.47796 0.0737,0.0737 0.0621,0.444 -0.0258,0.82295 -0.0879,0.37895 -0.16157,1.02017 -0.16383,1.42493 -0.003,0.59852 -0.0765,0.76597 -0.39176,0.89689 -0.21321,0.0885 -0.83209,0.24714 -1.37531,0.35247 -0.54321,0.10533 -1.03352,0.26572 -1.08957,0.35641 -0.056,0.0907 -0.0528,0.38829 0.007,0.66133 0.10583,0.48185 0.15047,0.50069 1.52029,0.64188 l 1.41127,0.14545 0.0493,1.67982 0.0493,1.67982 z m -34.477903,-2.92891 c -0.311607,0 -0.765225,-0.15628 -1.008042,-0.34728 -0.242817,-0.191 -0.528064,-0.6096 -0.633882,-0.93024 -0.105818,-0.32063 -0.142,-0.78376 -0.0804,-1.02918 0.0616,-0.24541 0.384693,-0.68565 0.717996,-0.97829 0.47385,-0.41605 0.704707,-0.50784 1.058595,-0.42091 0.248925,0.0611 0.633508,0.22824 0.854631,0.37133 0.221121,0.14309 0.516255,0.53352 0.655855,0.86762 0.14851,0.35543 0.20876,0.81257 0.14523,1.10182 -0.0597,0.2719 -0.34142,0.69029 -0.626,0.92975 -0.323829,0.27248 -0.729396,0.43538 -1.083978,0.43538 z m 4.643103,-2.58434 c -0.0278,0 -0.0977,-0.12263 -0.15517,-0.27252 -0.0575,-0.14989 -0.10458,-0.57108 -0.10458,-0.93598 0,-0.48428 0.0814,-0.68665 0.3015,-0.74934 0.16583,-0.0472 0.76669,-0.17499 1.33524,-0.28388 0.56856,-0.10889 1.61521,-0.37731 2.3259,-0.59648 0.7107,-0.21917 2.30006,-0.52485 3.53193,-0.67929 1.23186,-0.15443 2.89876,-0.40052 3.70421,-0.54686 0.80545,-0.14635 2.79859,-0.60853 4.429201,-1.02707 1.63062,-0.41854 4.69305,-1.33849 6.80542,-2.04434 2.11236,-0.70585 4.578459,-1.54907 5.480209,-1.87384 0.90175,-0.32476 2.60741,-0.99849 3.79035,-1.49717 1.18295,-0.49869 3.26297,-1.43987 4.62228,-2.09152 1.35931,-0.65165 2.5017,-1.18482 2.53865,-1.18482 0.0369,0 1.83215,-0.86596 3.98936,-1.92436 2.1572,-1.0584 4.30984,-2.16946 4.78363,-2.46902 0.4738,-0.29956 1.54116,-0.94931 2.37192,-1.44389 0.83076,-0.49457 2.92407,-1.67607 4.6518,-2.62555 1.72773,-0.94948 3.91663,-2.1008 4.86422,-2.5585 0.94759,-0.45769 2.61448,-1.17681 3.70421,-1.59804 1.08973,-0.42124 2.75662,-1.00495 3.70421,-1.29716 0.94759,-0.2922 2.61449,-0.76461 3.70421,-1.04979 1.08973,-0.28519 2.33021,-0.56455 2.75663,-0.62081 0.42641,-0.0562 1.68274,-0.0312 2.79184,0.0557 1.70734,0.13371 2.19568,0.24176 3.18485,0.70465 0.64257,0.30069 1.5669,0.84766 2.05408,1.21548 0.48718,0.36783 1.19027,1.12475 1.56243,1.68206 0.37216,0.55731 0.85495,1.57823 1.07287,2.26871 0.30281,0.95948 0.38098,1.54548 0.33158,2.48601 -0.0489,0.93032 -0.19797,1.51397 -0.61111,2.39195 -0.32493,0.69052 -0.90069,1.51557 -1.42017,2.03505 -0.48053,0.48053 -1.31839,1.0811 -1.86191,1.3346 -0.77827,0.36299 -1.24442,0.46039 -2.19423,0.45848 -0.88382,-0.002 -1.43617,-0.10722 -2.06747,-0.39466 -0.47379,-0.21572 -1.07465,-0.5964 -1.33524,-0.84594 -0.26058,-0.24955 -0.47379,-0.54824 -0.47379,-0.66376 0,-0.11552 0.39322,-0.49254 0.87383,-0.83783 0.51389,-0.36918 0.97519,-0.87035 1.11988,-1.21665 0.13532,-0.32387 0.24604,-0.90532 0.24604,-1.2921 0,-0.38679 -0.11369,-0.92311 -0.25265,-1.19183 -0.13896,-0.26872 -0.60443,-0.79822 -1.03436,-1.17667 -0.42994,-0.37845 -1.09155,-0.76673 -1.47025,-0.86286 -0.44771,-0.11364 -0.94464,-0.11748 -1.42075,-0.011 -0.40272,0.0901 -1.06129,0.35621 -1.46349,0.5914 -0.4022,0.23518 -0.84998,0.65718 -0.99508,0.93777 -0.15857,0.30664 -0.4009,0.51017 -0.60742,0.51017 -0.18897,0 -1.0592,-0.36827 -1.93382,-0.81837 l -1.59023,-0.81837 -1.72289,0.0109 c -1.36524,0.009 -2.15207,0.12496 -3.79036,0.56025 -1.1371,0.30212 -2.76523,0.81001 -3.61806,1.12864 -0.85283,0.31862 -2.61072,0.97289 -3.90642,1.45393 -1.2957,0.48103 -2.65247,1.02843 -3.01506,1.21644 -0.36258,0.18801 -1.15414,0.70497 -1.75902,1.14879 l -1.09978,0.80695 0.92749,0.34012 c 0.51012,0.18707 1.27638,0.42072 1.7028,0.51922 0.65031,0.15023 0.92805,0.12304 1.72288,-0.16866 0.52118,-0.19126 1.31156,-0.48931 1.7564,-0.66233 0.44485,-0.17302 0.85566,-0.26774 0.91291,-0.21049 0.0573,0.0573 0.0539,0.30389 -0.007,0.5481 -0.0647,0.25769 -0.37343,0.59858 -0.73574,0.81236 l -0.62431,0.36835 0.59669,0.25088 c 0.32818,0.13799 1.76029,0.36067 3.18247,0.49484 1.42219,0.13418 2.77961,0.28373 3.01651,0.33234 0.2369,0.0486 1.0122,0.21511 1.72289,0.36999 0.71069,0.15488 2.41635,0.66998 3.79036,1.14466 1.374,0.47468 3.55873,1.35389 4.85494,1.9538 1.29622,0.5999 2.6347,1.20686 2.97441,1.3488 0.33971,0.14194 0.66387,0.37853 0.72037,0.52575 0.0607,0.15811 -0.13426,0.58225 -0.47622,1.03619 -0.34317,0.45553 -0.71926,0.76983 -0.92351,0.77175 -0.18952,0.002 -0.67233,-0.18414 -1.07291,-0.41319 -0.40057,-0.22904 -1.3697,-0.68996 -2.15361,-1.02427 -0.78391,-0.33431 -2.05428,-0.83787 -2.82305,-1.11904 -0.76876,-0.28116 -2.82331,-0.78665 -4.56565,-1.12329 -1.74234,-0.33665 -3.97623,-0.73017 -4.9642,-0.87449 -1.2503,-0.18263 -3.16881,-0.26239 -6.31158,-0.26239 -3.55767,0 -5.06966,0.074 -7.12938,0.34878 -1.43777,0.19183 -2.90048,0.45337 -3.25047,0.58119 -0.34999,0.12783 -1.87682,0.67505 -3.39297,1.21605 -1.51614,0.54099 -3.69112,1.28521 -4.83329,1.6538 -1.14217,0.3686 -2.64881,0.79053 -3.34808,0.93763 -0.69927,0.14709 -1.89685,0.45692 -2.66127,0.68851 -0.764429,0.23158 -2.785409,0.81963 -4.491069,1.30677 -1.70566,0.48714 -3.83203,1.06936 -4.72527,1.29382 -0.89323,0.22445 -1.993131,0.53069 -2.444221,0.68051 -0.45108,0.14983 -1.69727,0.45569 -2.7693,0.67969 -1.07203,0.22401 -3.07333,0.64852 -4.44733,0.94336 -1.37401,0.29485 -3.37811,0.68844 -4.45356,0.87466 -1.07546,0.18622 -1.97814,0.33858 -2.00596,0.33858 z M 152.13667,182.469 c 0.27313,0.0181 0.38765,-0.0696 0.38765,-0.29683 0,-0.24333 -0.17003,-0.34975 -0.69219,-0.43324 -0.38071,-0.0609 -0.88465,-0.0624 -1.11988,-0.003 -0.23523,0.059 -0.42769,0.16157 -0.42769,0.22786 0,0.0663 0.3295,0.20136 0.73223,0.30017 0.40272,0.0988 0.90667,0.19123 1.11988,0.20538 z m -87.320976,26.72642 c -0.229436,-0.002 -0.864847,-0.18819 -1.412025,-0.4132 -0.547177,-0.22501 -1.413567,-0.72523 -1.925311,-1.1116 -0.511743,-0.38637 -0.979325,-0.85651 -1.039071,-1.04475 -0.05975,-0.18824 -0.02408,-0.50025 0.07927,-0.69334 0.103344,-0.1931 0.34244,-0.35109 0.531326,-0.35109 0.188885,0 0.787015,0.22191 1.329178,0.49313 0.54216,0.27121 1.402953,0.59151 1.912872,0.71176 0.509918,0.12025 1.072011,0.36352 1.249094,0.54061 0.177084,0.17708 0.32197,0.54254 0.32197,0.81213 0,0.26959 -0.141781,0.61848 -0.315071,0.7753 -0.17329,0.15683 -0.502793,0.2833 -0.732228,0.28105 z m 88.914646,-1.67589 c -0.2369,0.0502 -0.64073,0.0299 -0.89739,-0.0452 -0.25667,-0.075 -0.69291,-0.29752 -0.96942,-0.49442 -0.27652,-0.19689 -0.62861,-0.62321 -0.78243,-0.94736 -0.15382,-0.32415 -0.27967,-0.98142 -0.27967,-1.46059 0,-0.77152 0.0741,-0.94914 0.64764,-1.55204 0.43834,-0.46079 0.86131,-0.7209 1.30879,-0.80485 0.38228,-0.0717 0.93807,-0.0411 1.3177,0.0727 0.3611,0.10819 0.89251,0.46545 1.1809,0.79391 0.28839,0.32846 0.57557,0.87021 0.63817,1.20389 0.0626,0.33368 0.0644,0.87019 0.004,1.19223 -0.0604,0.32204 -0.26972,0.78877 -0.46511,1.03717 -0.19539,0.24841 -0.56162,0.55551 -0.81384,0.68246 -0.25222,0.12694 -0.65241,0.27188 -0.88931,0.32208 z m -86.542276,-2.6377 c -0.112856,-0.006 -0.774003,-0.16321 -1.469214,-0.34993 -0.695212,-0.18671 -1.819397,-0.61836 -2.49819,-0.95923 -0.678792,-0.34087 -1.907489,-1.08 -2.730438,-1.64251 -0.822948,-0.56252 -2.067853,-1.57984 -2.766455,-2.26073 -0.698602,-0.68089 -1.793372,-1.89698 -2.432823,-2.70243 -0.63945,-0.80546 -1.673509,-2.27567 -2.297908,-3.26714 -0.624401,-0.99148 -1.348511,-2.31979 -1.609137,-2.95182 -0.260625,-0.63202 -0.591118,-1.56524 -0.73443,-2.07381 -0.143312,-0.50858 -0.437523,-1.69999 -0.653804,-2.64758 -0.33797,-1.48075 -0.391873,-2.18296 -0.383525,-4.99638 0.0076,-2.56528 0.09006,-3.72078 0.381099,-5.34095 0.204264,-1.13711 0.494401,-2.50692 0.644749,-3.04402 0.150346,-0.5371 0.491578,-1.23487 0.758291,-1.5506 0.402891,-0.47693 0.53754,-0.54213 0.79586,-0.38536 0.186983,0.11347 0.385903,0.55988 0.499017,1.11988 0.103451,0.51215 0.281367,1.10385 0.395369,1.31489 0.114002,0.21103 0.341175,0.45384 0.504832,0.53958 0.163656,0.0857 0.461292,0.094 0.66141,0.0183 0.200121,-0.0757 0.529623,-0.34832 0.732228,-0.60589 0.202607,-0.25757 0.368375,-0.65417 0.368375,-0.88133 0,-0.22716 -0.116295,-0.69135 -0.258434,-1.03154 -0.142138,-0.34019 -0.258433,-0.94412 -0.258433,-1.34209 0,-0.39796 0.117112,-1.06688 0.260249,-1.48648 0.143136,-0.41961 0.55275,-1.15057 0.910253,-1.62437 0.357501,-0.47379 1.123856,-1.22019 1.703007,-1.65866 0.579152,-0.43848 1.417731,-0.93652 1.863506,-1.10676 0.784347,-0.29955 0.829838,-0.29912 1.40969,0.0131 0.329552,0.17748 0.709493,0.53599 0.844309,0.7967 0.134816,0.26071 0.24512,0.71199 0.24512,1.00286 0,0.29086 -0.192841,1.00343 -0.428536,1.58348 -0.235694,0.58004 -0.738506,1.45641 -1.117359,1.94747 -0.482176,0.62499 -1.05581,1.09401 -1.912115,1.56341 -0.672809,0.36881 -1.449243,0.9279 -1.725408,1.24244 -0.309983,0.35305 -0.502116,0.76482 -0.502116,1.07611 0,0.44883 0.08045,0.52491 0.732228,0.69244 0.402725,0.10351 0.804227,0.20803 0.892227,0.23226 0.088,0.0242 -0.199862,0.30248 -0.639691,0.61835 -0.59834,0.42969 -0.974178,0.90968 -1.492697,1.90634 -0.381153,0.73262 -0.816352,1.86389 -0.967106,2.51394 -0.150755,0.65004 -0.384489,2.07176 -0.519408,3.15937 -0.13492,1.08761 -0.24304,2.44561 -0.240266,3.01776 0.0028,0.57216 0.184541,2.08694 0.403926,3.36618 0.288627,1.68299 0.575268,2.72632 1.036994,3.77452 0.350961,0.79673 0.94717,1.97779 1.324912,2.62458 0.377741,0.64678 1.168489,1.77809 1.757219,2.51403 0.588729,0.73593 1.578806,1.84201 2.200174,2.45794 0.621367,0.61593 1.706985,1.51385 2.412484,1.99536 0.705501,0.48152 1.962661,1.24234 2.793689,1.69071 0.831031,0.44838 1.466077,0.88786 1.411217,0.97663 -0.05486,0.0888 -0.192085,0.15669 -0.304941,0.15094 z m 11.596596,-0.92977 c -1.65828,0.0362 -3.28641,-0.004 -3.61807,-0.0898 -0.33165,-0.0856 -1.30078,-0.28645 -2.15361,-0.44637 -0.85283,-0.15993 -2.245967,-0.55612 -3.095863,-0.88042 -0.849898,-0.32431 -2.386739,-1.02686 -3.415206,-1.56122 -1.456799,-0.75691 -2.206611,-1.28849 -3.393783,-2.40605 -0.838117,-0.78897 -1.908784,-1.95657 -2.379262,-2.59467 -0.470477,-0.63809 -1.205736,-1.81918 -1.633908,-2.62463 -0.428171,-0.80545 -0.973042,-2.04593 -1.210824,-2.75662 -0.237783,-0.7107 -0.555594,-2.02299 -0.706249,-2.9162 -0.150653,-0.89322 -0.273915,-2.09381 -0.273915,-2.66797 0,-0.57417 0.123521,-1.8979 0.274492,-2.94163 0.186146,-1.28691 0.491563,-2.45642 0.948945,-3.6337 0.37095,-0.95481 0.99331,-2.27282 1.38302,-2.92891 0.389713,-0.65609 1.145019,-1.64131 1.678461,-2.18938 0.533441,-0.54806 1.353383,-1.18769 1.822093,-1.42138 0.468711,-0.2337 1.147098,-0.4249 1.507528,-0.4249 0.36043,0 0.655329,0.047 0.655329,0.10437 0,0.0574 -0.537027,0.67941 -1.19339,1.38223 -0.656366,0.70284 -1.469124,1.77093 -1.806131,2.37356 -0.337006,0.60262 -0.839729,1.66689 -1.117164,2.36504 -0.277435,0.69815 -0.633159,2.08343 -0.790495,3.0784 -0.196864,1.24494 -0.250899,2.23882 -0.173288,3.18734 0.06203,0.75807 0.215315,1.88662 0.340638,2.50788 0.125323,0.62126 0.583858,1.87629 1.018966,2.78895 0.444954,0.93331 1.258548,2.24044 1.859404,2.98735 0.587564,0.73039 1.653793,1.7948 2.369395,2.36538 0.715604,0.57057 1.998868,1.36628 2.851698,1.76824 0.852831,0.40197 1.925181,0.85544 2.383001,1.00773 0.457818,0.15228 1.504478,0.42634 2.325898,0.60901 0.82143,0.18267 2.30786,0.41474 3.30318,0.5157 0.99533,0.10096 3.35999,0.18727 5.25481,0.1918 1.89483,0.005 3.98785,-0.0713 4.65116,-0.16857 0.66331,-0.0973 2.09762,-0.3743 3.187341,-0.61567 1.08973,-0.24137 2.71786,-0.6384 3.61807,-0.88229 0.90021,-0.24389 3.03229,-0.91253 4.73795,-1.48587 1.70566,-0.57334 3.915259,-1.37315 4.910229,-1.77736 0.99497,-0.40421 2.35174,-0.96637 3.01506,-1.24924 0.66331,-0.28287 1.6712,-0.72311 2.23975,-0.97832 0.56855,-0.25521 1.26632,-0.56809 1.5506,-0.69529 0.28428,-0.1272 1.87364,-0.86682 3.53192,-1.6436 1.65828,-0.77678 4.21678,-2.03402 5.68554,-2.79387 1.46876,-0.75985 3.52331,-1.86652 4.56565,-2.45928 1.04235,-0.59276 2.05953,-1.12636 2.2604,-1.18578 0.30545,-0.0904 0.38298,-0.0192 0.47379,0.43485 0.0597,0.29859 0.10858,0.72703 0.10858,0.95208 0,0.2272 0.10271,0.40918 0.23094,0.40918 0.12701,0 0.84416,-0.36905 1.59367,-0.82011 0.7495,-0.45106 2.1768,-1.446 3.17177,-2.21098 0.99497,-0.76498 2.27421,-1.74405 2.84277,-2.17571 0.56855,-0.43166 1.69274,-1.38798 2.49819,-2.12514 0.80545,-0.73716 2.40321,-2.27703 3.55057,-3.42194 1.14737,-1.1449 2.49834,-2.58558 3.00216,-3.20152 0.50382,-0.61593 1.34252,-1.77888 1.86377,-2.58433 0.52125,-0.80545 1.39231,-2.40385 1.93569,-3.552 0.54338,-1.14815 1.22092,-2.81505 1.50565,-3.70421 0.28472,-0.88917 0.64361,-2.27567 0.79752,-3.08112 0.19839,-1.03821 0.27132,-2.29189 0.25056,-4.30723 -0.0161,-1.56352 -0.10101,-3.37418 -0.18866,-4.02369 -0.0877,-0.64951 -0.4271,-1.92052 -0.75431,-2.82446 -0.32722,-0.90394 -0.83064,-2.0555 -1.11872,-2.55902 -0.28808,-0.50351 -0.85693,-1.28344 -1.2641,-1.73318 -0.71565,-0.79046 -0.77443,-0.81861 -1.76457,-0.84483 -0.56334,-0.0149 -1.17615,-0.12286 -1.36179,-0.23986 -0.18563,-0.117 -0.48376,-0.40834 -0.66249,-0.64742 -0.17874,-0.23907 -0.36241,-0.76677 -0.40816,-1.17266 -0.0629,-0.55791 0.0122,-0.90779 0.30794,-1.43389 0.21723,-0.3865 0.61062,-0.78683 0.88481,-0.9004 0.27807,-0.11518 0.84985,-0.1644 1.3092,-0.1127 0.68518,0.0771 0.91738,0.20653 1.4529,0.80973 0.4414,0.4972 0.67199,0.94877 0.74995,1.46867 0.0619,0.41289 0.053,0.84712 -0.0198,0.96494 -0.0842,0.13621 0.0923,0.40733 0.48476,0.74446 0.33944,0.29163 1.0586,1.15047 1.59813,1.90855 0.53953,0.75807 1.3103,2.03731 1.71281,2.84276 0.40251,0.80545 0.93245,2.0847 1.17765,2.84277 0.24519,0.75807 0.53117,1.7272 0.63552,2.15361 0.10435,0.42642 0.26794,0.9762 0.36353,1.22175 0.0956,0.24555 0.44085,0.5738 0.76724,0.72944 0.32639,0.15565 0.59319,0.38116 0.59289,0.50114 -3.5e-4,0.11998 -0.12069,0.91592 -0.26753,1.76875 -0.14683,0.85283 -0.54174,2.55849 -0.87758,3.79035 -0.33584,1.23187 -0.86478,2.90086 -1.17542,3.70886 -0.31064,0.808 -0.85566,2.04848 -1.21115,2.75662 -0.35549,0.70814 -0.99461,1.83024 -1.42026,2.49355 -0.42565,0.66331 -1.36153,1.94256 -2.07973,2.84276 -0.71821,0.90021 -1.77505,2.13281 -2.34855,2.7391 -0.57349,0.60629 -2.08937,2.003 -3.36861,3.10379 -1.27925,1.10079 -2.86861,2.42969 -3.53193,2.95311 -0.66331,0.52342 -1.74873,1.34163 -2.41204,1.81823 -0.66331,0.47661 -2.25268,1.52785 -3.53192,2.3361 -1.27925,0.80824 -2.85936,1.76214 -3.51136,2.11977 -0.652,0.35762 -1.50483,0.86503 -1.89518,1.12756 -0.39034,0.26254 -1.56255,0.93983 -2.6049,1.50511 -1.04235,0.56527 -3.7298,1.96735 -5.97211,3.11573 -2.24231,1.14838 -5.53734,2.75693 -7.32228,3.57457 -1.78494,0.81763 -4.02064,1.8152 -4.96823,2.21682 -0.94759,0.40162 -2.07178,0.86815 -2.49819,1.03674 -0.42642,0.16859 -1.62813,0.60761 -2.67048,0.9756 -1.042349,0.36799 -2.670479,0.93294 -3.618069,1.25543 -0.94759,0.32249 -2.45942,0.79553 -3.35963,1.05119 -0.90021,0.25566 -2.6834,0.72114 -3.96265,1.0344 -1.279241,0.31326 -3.527611,0.77632 -4.996371,1.02902 -1.9856,0.34163 -3.44373,0.47634 -5.68554,0.52529 z m 31.52966,-0.0109 c -1.53967,0.13248 -1.6214,0.12322 -1.38862,-0.15726 0.13604,-0.16391 0.69971,-0.52638 1.25261,-0.80548 0.5529,-0.2791 1.75925,-0.78264 2.68078,-1.11897 0.92154,-0.33634 2.79971,-0.84904 4.17371,-1.13934 2.35685,-0.49796 2.72726,-0.52889 6.54698,-0.54678 2.22683,-0.0104 4.33435,0.0417 4.68338,0.1159 0.56527,0.12014 0.72993,0.29329 1.50752,1.5853 0.48012,0.79774 0.87294,1.5227 0.87294,1.61102 0,0.0883 -0.4947,0.21357 -1.09934,0.27832 -0.60464,0.0648 -4.81064,0.0995 -9.34667,0.0771 -4.53603,-0.0223 -8.98351,0.0228 -9.88329,0.10016 z m -27.05015,-7.76739 c -1.08972,0.0417 -2.21391,0.0421 -2.49819,8.6e-4 -0.28427,-0.0413 -0.84637,-0.16132 -1.24909,-0.26671 l -0.73223,-0.19162 10e-4,-1.2267 c 5.1e-4,-0.67469 0.0866,-1.53513 0.19123,-1.91209 0.12204,-0.43956 0.68551,-1.26105 1.57111,-2.29051 0.75946,-0.88282 1.83816,-2.06246 2.39712,-2.62142 l 1.0163,-1.0163 7.645131,0.003 c 4.20483,0.002 8.486549,-0.0512 9.514939,-0.11736 1.02839,-0.0662 2.10546,-0.21618 2.3935,-0.33335 0.48207,-0.19611 0.51838,-0.26879 0.45683,-0.91424 l -0.0669,-0.70119 -1.12917,-0.12092 c -0.62104,-0.0665 -4.606699,-0.0853 -8.857009,-0.0417 -4.25031,0.0436 -7.763021,0.044 -7.806021,0.001 -0.043,-0.043 0.25268,-0.55291 0.65705,-1.13315 0.40437,-0.58023 0.82603,-1.26817 0.93702,-1.52876 l 0.2018,-0.47379 17.01722,0.003 c 10.1936,0.002 17.11885,0.0669 17.27067,0.16293 0.13939,0.0882 0.21692,0.1915 0.17229,0.22966 -0.0446,0.0382 -0.85646,0.49412 -1.80404,1.01325 -0.94759,0.51912 -2.84708,1.49571 -4.22108,2.17019 -1.37401,0.67448 -3.97126,1.92212 -5.77168,2.77252 -1.80042,0.85041 -4.20385,1.94783 -5.34096,2.43873 -1.1371,0.49089 -2.57141,1.08176 -3.18734,1.31305 -0.61594,0.23129 -2.089009,0.75832 -3.273489,1.1712 -1.18449,0.41287 -2.85138,0.95493 -3.70421,1.20457 -0.85283,0.24965 -2.28714,0.65161 -3.18735,0.89326 -0.90021,0.24164 -1.94686,0.51584 -2.3259,0.60932 -0.379031,0.0935 -1.503221,0.31799 -2.498191,0.49891 -0.99497,0.18091 -2.70063,0.36308 -3.79035,0.40481 z m -1.32191,-4.16435 c 0.20588,-0.0519 0.80074,-0.38086 1.32191,-0.73111 0.52118,-0.35026 1.41277,-0.87266 1.98133,-1.16091 0.56855,-0.28825 1.65847,-0.80088 2.42205,-1.13918 0.76357,-0.3383 1.798321,-0.70302 2.299441,-0.8105 0.68527,-0.14696 0.8621,-0.24436 0.71334,-0.39292 -0.12965,-0.12947 -0.92183,-0.19003 -2.299451,-0.17577 -1.31953,0.0137 -2.51307,0.12728 -3.20719,0.30531 -0.60805,0.15595 -1.49965,0.51474 -1.98132,0.79731 -0.48169,0.28257 -1.07915,0.68789 -1.32771,0.90072 -0.24855,0.21282 -0.65681,0.71685 -0.90723,1.12006 l -0.45531,0.73311 0.53291,0.32408 c 0.30487,0.18541 0.69309,0.28374 0.90723,0.2298 z m -9.47137,3.22244 c -0.0809,-0.007 -0.625,-0.14904 -1.209151,-0.3162 -0.584148,-0.16716 -1.630803,-0.64067 -2.325901,-1.05225 -0.695096,-0.41158 -1.739384,-1.22225 -2.32064,-1.80149 -0.581256,-0.57923 -1.442449,-1.64386 -1.913761,-2.36583 -0.471312,-0.72198 -1.070843,-1.84295 -1.332291,-2.49105 -0.336391,-0.83387 -0.512339,-1.65513 -0.601852,-2.80921 -0.06957,-0.89697 -0.05761,-2.31759 0.02658,-3.15694 0.09122,-0.90945 0.354724,-2.07862 0.652134,-2.89354 0.274484,-0.7521 0.770401,-1.81244 1.102039,-2.35631 0.331638,-0.54387 1.267116,-1.69908 2.07884,-2.56714 0.811726,-0.86806 1.475863,-1.66274 1.475863,-1.76596 0,-0.11948 0.492952,-0.18767 1.35665,-0.18767 0.773291,0 1.675735,0.11258 2.09871,0.26181 0.40813,0.144 0.99276,0.45304 1.29918,0.68675 0.30641,0.23372 0.7963,0.90359 1.08863,1.4886 0.39175,0.78395 0.53152,1.30207 0.53152,1.97033 0,0.7566 -0.0931,1.03009 -0.56242,1.6523 -0.30933,0.41009 -0.91018,0.92505 -1.33524,1.14435 -0.59093,0.30489 -0.94586,0.37653 -1.508015,0.3044 -0.404358,-0.0519 -0.966451,-0.21393 -1.249094,-0.36009 -0.282645,-0.14616 -0.513898,-0.37268 -0.513898,-0.50338 0,-0.1307 0.348885,-0.4421 0.7753,-0.692 0.716852,-0.4201 0.7753,-0.50706 0.7753,-1.15347 0,-0.56537 -0.112076,-0.8112 -0.585783,-1.28491 -0.488828,-0.48883 -0.711361,-0.58578 -1.344513,-0.58578 -0.634225,0 -0.850385,0.0946 -1.317252,0.57625 -0.352105,0.36328 -0.770619,1.14673 -1.132421,2.11988 -0.315645,0.849 -0.656301,2.08215 -0.757013,2.74032 -0.100713,0.65817 -0.234149,2.01074 -0.296526,3.00571 -0.06238,0.99496 -0.101792,2.15791 -0.08759,2.58433 0.0142,0.42641 0.143443,1.29492 0.287204,1.93 0.161443,0.71319 0.515845,1.5484 0.926875,2.18434 0.366017,0.56631 0.822169,1.1135 1.013672,1.21598 0.314593,0.16837 0.359143,0.12385 0.461793,-0.46145 0.06249,-0.35629 0.222992,-0.82224 0.356678,-1.03544 0.172704,-0.27543 0.40875,-0.38765 0.815405,-0.38765 0.354479,0 0.69163,0.13181 0.885734,0.3463 0.213166,0.23554 0.347433,0.74524 0.419809,1.59367 0.06722,0.78802 0.269434,1.59922 0.549097,2.20282 0.243479,0.5255 0.694858,1.24265 1.003058,1.59367 0.3082,0.35103 0.49419,0.6327 0.4133,0.62595 z m 65.1129,-1.3663 c -0.0741,-1.5e-4 -0.40419,-0.13583 -0.73349,-0.30151 -0.40374,-0.20313 -0.67696,-0.50923 -0.83892,-0.93987 -0.135,-0.35898 -0.19039,-0.83702 -0.12648,-1.09165 0.0625,-0.24915 0.30084,-0.64015 0.52958,-0.86889 0.33803,-0.33803 0.59187,-0.41588 1.35599,-0.41588 0.84618,0 0.98647,0.0551 1.40418,0.55152 0.38234,0.45439 0.44829,0.66915 0.37449,1.21939 -0.0493,0.36733 -0.23183,0.82762 -0.40569,1.02286 -0.17385,0.19524 -0.56559,0.46058 -0.87051,0.58964 -0.30492,0.12906 -0.61504,0.23453 -0.68915,0.23439 z m -9.90562,-13.78573 c -0.0675,0.002 0.78536,-0.84157 1.89518,-1.87367 1.10982,-1.0321 2.25587,-2.13691 2.54676,-2.45512 0.2909,-0.31821 1.03519,-1.20143 1.65399,-1.96272 0.6188,-0.76129 1.62806,-2.11807 2.24279,-3.01506 0.61474,-0.89699 1.40431,-2.11057 1.7546,-2.69684 0.35029,-0.58627 0.98026,-1.97098 1.39992,-3.07712 0.41967,-1.10615 0.93924,-2.68102 1.15461,-3.49971 0.33662,-1.27962 0.39106,-1.91169 0.38789,-4.50359 -0.003,-2.6232 -0.0534,-3.17591 -0.38666,-4.2527 -0.21064,-0.6807 -0.63756,-1.57141 -0.94871,-1.97935 -0.31115,-0.40794 -0.82589,-0.91704 -1.14388,-1.13133 -0.38426,-0.25896 -0.83404,-0.38962 -1.34122,-0.38962 -0.61789,0 -0.86127,0.0982 -1.27918,0.51611 -0.48575,0.48574 -0.50926,0.57094 -0.39963,1.44838 0.10265,0.82155 0.0785,0.94035 -0.20287,1.00017 -0.17564,0.0373 -0.57325,0.0135 -0.88358,-0.0529 -0.31032,-0.0664 -0.82571,-0.32023 -1.14531,-0.564 -0.3196,-0.24377 -0.75389,-0.80019 -0.9651,-1.23649 -0.32102,-0.66313 -0.37078,-0.99603 -0.30331,-2.02908 0.0524,-0.80237 0.21374,-1.49534 0.45999,-1.97579 0.2086,-0.407 0.65421,-1.04431 0.99024,-1.41626 0.33603,-0.37194 1.03191,-0.88221 1.5464,-1.13393 0.72183,-0.35315 1.28114,-0.47738 2.44921,-0.54398 1.12438,-0.0641 1.77723,-0.0106 2.538,0.20812 0.56332,0.16193 1.39035,0.52742 1.83784,0.81219 0.44749,0.28477 1.24492,0.98362 1.77206,1.553 0.52714,0.56937 1.21833,1.5513 1.53597,2.18205 0.31765,0.63076 0.70956,1.57312 0.87092,2.09414 0.20282,0.65489 0.32173,1.82479 0.38524,3.79007 0.0565,1.7484 0.0165,3.32513 -0.10388,4.09577 -0.10766,0.68915 -0.47338,2.08469 -0.81272,3.1012 -0.33934,1.01651 -0.95764,2.53517 -1.37401,3.3748 -0.41636,0.83964 -1.1593,2.11888 -1.65097,2.84277 -0.49167,0.72389 -1.29539,1.82011 -1.78604,2.43604 -0.49066,0.61593 -1.27168,1.51966 -1.7356,2.00828 -0.46392,0.48862 -1.79084,1.77621 -2.94871,2.86131 -1.15787,1.0851 -2.74724,2.40434 -3.53192,2.93164 -0.78469,0.5273 -2.08572,1.31234 -2.89117,1.74453 -0.80545,0.4322 -1.51966,0.78711 -1.58714,0.78869 z m 14.92084,-0.74314 c -0.63059,0.0864 -0.74706,0.0602 -0.66633,-0.15021 0.0538,-0.14022 0.6176,-0.6319 1.25287,-1.09263 0.63527,-0.46072 2.0058,-1.50033 3.04562,-2.31024 1.03982,-0.80992 2.50073,-2.09282 3.24647,-2.85089 0.74575,-0.75807 2.00988,-2.24523 2.80918,-3.30481 1.13237,-1.50109 1.58537,-1.97009 2.05141,-2.1239 0.44991,-0.14848 0.7469,-0.1483 1.19845,6.9e-4 0.33017,0.10897 0.75659,0.39679 0.94759,0.63961 0.191,0.24281 0.34557,0.683 0.34349,0.97819 -0.002,0.29518 -0.14571,0.84682 -0.31918,1.22586 -0.17346,0.37903 -0.67225,1.12549 -1.10843,1.65879 -0.43618,0.5333 -1.35859,1.39301 -2.0498,1.91047 -0.69122,0.51746 -1.94129,1.34321 -2.77793,1.835 -0.83665,0.49179 -2.11589,1.19268 -2.84277,1.55754 -0.72688,0.36486 -2.00669,0.94651 -2.84404,1.29257 -0.83734,0.34605 -1.86632,0.67632 -2.2866,0.73393 z M 96.353741,179.22127 H 88.30536 l -0.0859,-0.76168 c -0.0608,-0.53947 -0.26839,-0.98444 -0.71156,-1.52527 -0.34414,-0.41998 -0.62571,-0.81376 -0.62571,-0.87507 0,-0.0613 4.399831,-0.11103 9.777401,-0.1105 l 9.777389,0.001 0.81837,1.37149 c 0.45011,0.75432 0.81838,1.43987 0.81838,1.52344 0,0.0836 -0.82613,0.2025 -1.83584,0.26428 -1.00971,0.0617 -5.4576,0.11227 -9.884199,0.11227 z m 20.635989,-0.003 c -2.7717,-10e-4 -5.13863,-0.0656 -5.25985,-0.14249 -0.12121,-0.0769 -0.34266,-0.73943 -0.4921,-1.47223 -0.14944,-0.7328 -0.21834,-1.38583 -0.15312,-1.45118 0.0652,-0.0653 2.83718,-0.14198 6.1599,-0.1703 l 6.0413,-0.0515 -0.32039,0.48221 c -0.17621,0.26522 -0.45897,0.75058 -0.62834,1.07859 -0.16937,0.328 -0.30795,0.85133 -0.30795,1.16295 v 0.56658 l -5.03945,-0.003 z m -8.26907,-3.86031 c -0.0445,0.0445 -0.16008,-0.0179 -0.25685,-0.1386 -0.0968,-0.12074 -0.4887,-0.87915 -0.87098,-1.68535 -0.38229,-0.8062 -1.15306,-2.16297 -1.71283,-3.01505 -0.55977,-0.85208 -1.60398,-2.24701 -2.32046,-3.09984 -0.71648,-0.85283 -1.68016,-1.90887 -2.14151,-2.34676 -0.46135,-0.43788 -1.769179,-1.53012 -2.906289,-2.42719 -1.1371,-0.89707 -2.82732,-2.15625 -3.75602,-2.7982 -0.92871,-0.64194 -2.78943,-1.72457 -4.13494,-2.40584 -1.345501,-0.68126 -3.686851,-1.72758 -5.203001,-2.32514 -1.51614,-0.59757 -3.45439,-1.36012 -4.30722,-1.69457 -0.85283,-0.33444 -2.19488,-0.90468 -2.98233,-1.2672 -0.78746,-0.36252 -1.98917,-1.02721 -2.67048,-1.47708 -0.68131,-0.44988 -1.62639,-1.12034 -2.10019,-1.48992 -0.47379,-0.36957 -1.65288,-1.36066 -2.620188,-2.2024 -0.967309,-0.84175 -2.340691,-2.1961 -3.05196,-3.00966 -0.711271,-0.81357 -1.944573,-2.50032 -2.740672,-3.74833 -0.796101,-1.24801 -1.681338,-2.73429 -1.967193,-3.30285 -0.285857,-0.56855 -0.625709,-1.49891 -0.755229,-2.06746 l -0.235489,-1.03374 -0.05161,0.88611 c -0.02838,0.48736 0.106907,1.84413 0.300644,3.01505 0.193737,1.17093 0.352562,2.38515 0.352943,2.69827 3.44e-4,0.31313 0.238963,1.55361 0.530179,2.75662 0.291218,1.20302 0.567013,2.37787 0.612878,2.61079 0.04586,0.23291 0.421617,1.1245 0.835005,1.98132 0.413389,0.85681 1.272537,2.33314 1.90922,3.28073 0.636682,0.94759 1.726006,2.42066 2.420718,3.27349 0.694714,0.85283 1.703234,2.0367 2.24116,2.63081 0.537924,0.59412 0.935404,1.12285 0.883294,1.17497 -0.0521,0.0521 -0.42999,-0.0763 -0.839714,-0.28528 -0.40972,-0.20903 -1.14497,-0.67556 -1.63389,-1.03675 -0.488919,-0.36118 -1.364131,-1.09664 -1.944916,-1.63434 -0.580782,-0.5377 -1.549016,-1.56903 -2.151633,-2.29184 -0.602615,-0.7228 -1.622638,-2.08949 -2.266716,-3.03708 -0.644079,-0.94759 -1.576305,-2.57572 -2.071614,-3.61807 -0.495306,-1.04234 -1.066091,-2.45514 -1.268408,-3.13955 -0.202317,-0.6844 -0.527349,-2.11759 -0.722292,-3.18486 -0.194943,-1.06726 -0.406536,-2.98826 -0.470206,-4.26887 -0.06367,-1.28061 -0.05925,-2.98739 0.0098,-3.79284 0.06907,-0.80545 0.293485,-2.31728 0.4987,-3.35963 0.205217,-1.04235 0.601883,-2.55419 0.881482,-3.35964 0.279599,-0.80545 0.962318,-2.39481 1.517152,-3.53192 0.554834,-1.13711 1.402136,-2.72037 1.882892,-3.51836 0.480757,-0.79799 1.18137,-1.84465 1.556918,-2.3259 0.375547,-0.48125 1.091883,-1.31096 1.591857,-1.8438 0.499974,-0.53283 1.471528,-1.44244 2.159011,-2.02134 0.687481,-0.5789 1.556604,-1.20897 1.931386,-1.40017 0.37478,-0.1912 0.723271,-0.34763 0.774421,-0.34763 0.0511,0 0.093,0.0927 0.093,0.20593 0,0.11327 -0.18369,0.404 -0.408193,0.64609 -0.22451,0.24208 -0.844254,1.08364 -1.377209,1.87014 -0.532957,0.7865 -1.349125,2.22595 -1.813709,3.19877 -0.464582,0.97282 -1.088704,2.61645 -1.386935,3.65252 -0.384989,1.33747 -0.587656,2.50829 -0.698857,4.03736 -0.100165,1.37732 -0.09308,2.95472 0.01966,4.37606 0.09696,1.22234 0.364633,2.96495 0.594842,3.87245 0.230207,0.90751 0.800118,2.42713 1.266468,3.37695 0.46635,0.94981 1.309916,2.4247 1.874591,3.27753 0.672955,1.01637 1.701577,2.20411 2.985542,3.44739 1.29396,1.25296 2.66063,2.36066 4.02633,3.2634 1.13711,0.75163 2.49388,1.58599 3.01506,1.85412 0.52117,0.26813 1.82493,0.75573 2.89723,1.08357 1.0723,0.32784 2.66167,0.71477 3.53192,0.85985 0.87026,0.14509 2.39635,0.45247 3.391321,0.68308 0.99496,0.23061 2.77815,0.62069 3.96264,0.86685 1.18449,0.24615 2.46373,0.55661 2.84277,0.68989 0.37903,0.13329 1.34269,0.4065 2.14145,0.60714 0.79876,0.20064 1.690359,0.48685 1.981319,0.63603 0.29097,0.14918 1.23962,0.76542 2.10813,1.36944 0.8685,0.60402 2.18062,1.65909 2.91582,2.34462 0.73519,0.68552 1.80779,1.798 2.38354,2.47217 0.57576,0.67417 1.40893,1.87588 1.8515,2.67048 0.44256,0.79459 0.96592,1.94216 1.16301,2.55016 0.19709,0.608 0.33894,1.12213 0.31521,1.1425 -0.0237,0.0204 -0.87093,0.0921 -1.88269,0.15936 l -1.83955,0.12232 -0.29212,-0.57566 c -0.16067,-0.31661 -0.81577,-1.31328 -1.45579,-2.21481 -0.64001,-0.90154 -1.90594,-2.34879 -2.81318,-3.21611 -0.90724,-0.86733 -2.37047,-2.07672 -3.251639,-2.68754 -0.88117,-0.61081 -2.37742,-1.57523 -3.32501,-2.14314 -0.94759,-0.5679 -2.42066,-1.32221 -3.27349,-1.67624 -0.85283,-0.35402 -1.84194,-0.71459 -2.19803,-0.80125 -0.35608,-0.0867 -1.24768,-0.2232 -1.981321,-0.30342 -0.73364,-0.0802 -1.43081,-0.11016 -1.54926,-0.0665 -0.11845,0.0436 -0.21536,0.14332 -0.21536,0.22155 0,0.0782 0.17444,0.19489 0.38765,0.25924 0.21321,0.0643 0.89159,0.33522 1.50753,0.60196 0.615931,0.26674 2.360361,1.23646 3.876501,2.15494 1.51614,0.91848 3.69422,2.35771 4.84018,3.19828 1.14595,0.84058 2.774079,2.24674 3.618059,3.1248 0.84398,0.87807 1.85841,2.02241 2.25427,2.54299 0.39587,0.52057 1.15517,1.6723 1.68733,2.55939 0.53217,0.88709 1.24046,2.15477 1.57399,2.81707 0.33353,0.6623 0.835,1.79721 1.11437,2.52204 0.27938,0.72482 0.59329,1.80665 0.69757,2.40406 0.10428,0.59741 0.15319,1.12261 0.10868,1.16711 z m 9.53919,-1.6503 c -4.9124,0.0566 -7.48659,0.0271 -7.51163,-0.0861 -0.021,-0.0948 -0.29483,-0.94759 -0.60861,-1.89518 -0.31378,-0.94759 -0.75189,-2.08858 -0.97359,-2.53553 -0.2217,-0.44696 -0.40309,-0.89275 -0.40309,-0.99066 0,-0.12039 3.14288,-0.17802 9.70879,-0.17802 h 9.70879 l 0.10648,1.38078 c 0.0627,0.81264 0.033,1.57471 -0.0721,1.8521 -0.0982,0.25924 -0.34784,0.65401 -0.55474,0.87728 -0.20689,0.22328 -0.72505,0.64969 -1.15147,0.94759 l -0.7753,0.54164 z m -23.413979,0 c -9.121911,0 -10.168981,-0.0282 -10.552701,-0.28415 -0.23429,-0.15629 -0.72342,-0.56332 -1.08695,-0.90452 -0.36354,-0.3412 -0.83196,-0.96924 -1.04095,-1.39566 -0.30687,-0.62613 -0.36748,-0.99905 -0.31499,-1.93825 l 0.065,-1.16295 0.88982,0.0185 0.88982,0.0185 -0.73281,0.16409 c -0.65423,0.1465 -0.71362,0.19994 -0.55387,0.49842 0.16871,0.31524 0.39372,0.33432 3.94168,0.33432 2.06952,0 4.008071,-0.0491 4.307891,-0.10902 0.29982,-0.06 0.51745,-0.19208 0.48361,-0.29359 -0.0338,-0.10151 -0.31672,-0.2507 -0.62863,-0.33152 -0.31191,-0.0808 -0.53482,-0.17925 -0.49536,-0.21872 0.0395,-0.0395 2.54832,-0.0829 5.57522,-0.0965 l 5.503449,-0.0248 1.42495,1.87231 c 0.78373,1.02978 1.65594,2.26941 1.93825,2.75474 0.28231,0.48533 0.5133,0.93113 0.5133,0.99066 0,0.0595 -4.55702,0.10824 -10.126709,0.10824 z m 39.768149,-6.54697 c -0.25063,0 -0.54874,-0.093 -0.66245,-0.20675 -0.11371,-0.11371 -0.20675,-0.45706 -0.20675,-0.76299 0,-0.30594 0.12184,-0.67809 0.27074,-0.82699 0.14891,-0.14891 0.40981,-0.27074 0.57978,-0.27074 0.16997,0 0.51607,0.16285 0.76911,0.36189 0.34322,0.26998 0.43146,0.45595 0.34743,0.73223 -0.0619,0.20368 -0.23178,0.50601 -0.37739,0.67184 -0.14562,0.16583 -0.46983,0.30151 -0.72047,0.30151 z m 26.17999,-1.03365 c -0.22719,0.12159 -0.42496,0.0723 -0.75671,-0.18867 -0.28827,-0.22676 -0.44914,-0.52196 -0.44914,-0.8242 0,-0.259 0.16217,-0.95111 0.36037,-1.53801 0.21404,-0.63382 0.53827,-1.20705 0.79853,-1.41177 0.241,-0.18956 0.53355,-0.34466 0.65013,-0.34466 0.11659,0 0.41625,0.16069 0.66593,0.35708 0.33412,0.26283 0.45395,0.51442 0.45395,0.95313 0,0.32782 -0.10454,0.84552 -0.23232,1.15044 -0.12778,0.30492 -0.44626,0.80812 -0.70774,1.11823 -0.26148,0.3101 -0.61383,0.6379 -0.783,0.72843 z m -45.28552,-0.53311 c -0.83673,0.11895 -0.93461,0.098 -1.06624,-0.22794 -0.0797,-0.1974 -0.43178,-1.01792 -0.78236,-1.82337 -0.35059,-0.80545 -0.83555,-1.81334 -1.0777,-2.23976 -0.24215,-0.42641 -0.90075,-1.47307 -1.46356,-2.3259 -0.69344,-1.05079 -1.80725,-2.32906 -3.45545,-3.96567 -1.93472,-1.92112 -2.9132,-2.73532 -4.78406,-3.98086 -1.29353,-0.86118 -3.309309,-2.03695 -4.479509,-2.61282 -1.17019,-0.57587 -3.97165,-1.94044 -6.22547,-3.03237 -2.6364,-1.27728 -4.879121,-2.50481 -6.288541,-3.44197 -1.20489,-0.80115 -2.69465,-1.90779 -3.31058,-2.4592 -0.61594,-0.55141 -1.6608,-1.6014 -2.32193,-2.33333 -0.66112,-0.73192 -1.60072,-1.9352 -2.08798,-2.67394 -0.48727,-0.73875 -1.199,-1.96341 -1.58164,-2.72148 -0.38263,-0.75807 -0.90148,-2.037 -1.153,-2.84205 -0.25152,-0.80506 -0.57172,-2.2006 -0.71155,-3.1012 -0.13984,-0.90061 -0.28383,-2.56783 -0.31998,-3.70493 -0.0362,-1.13711 0.0305,-2.8273 0.14815,-3.75598 0.11764,-0.92868 0.15798,-1.72306 0.0897,-1.7653 -0.0683,-0.0422 -0.36182,0.29347 -0.65221,0.746 -0.29038,0.45252 -0.761,1.33672 -1.04582,1.96487 -0.35094,0.77397 -0.58165,1.66086 -0.71578,2.75155 -0.1135,0.92298 -0.15223,2.38106 -0.0908,3.41849 0.0589,0.99497 0.18624,2.29509 0.28293,2.88917 0.0967,0.59407 0.44848,1.83455 0.78177,2.75662 0.33328,0.92207 1.03589,2.43662 1.56134,3.36567 0.52546,0.92904 1.40504,2.28582 1.95463,3.01505 0.54959,0.72924 1.68639,1.98634 2.52622,2.79357 0.83983,0.80722 1.99214,1.82346 2.5607,2.25831 0.56855,0.43484 1.80903,1.23775 2.75662,1.78425 0.94759,0.5465 2.53695,1.33967 3.53192,1.7626 0.99497,0.42293 1.875511,0.83247 1.956751,0.9101 0.0812,0.0776 -0.0251,0.23361 -0.23625,0.34663 -0.25287,0.13533 -0.711761,0.16454 -1.344021,0.0855 -0.52803,-0.066 -1.71893,-0.34539 -2.64644,-0.62094 -0.92752,-0.27554 -2.22172,-0.76151 -2.87601,-1.07993 -0.65428,-0.31843 -1.8768,-0.99248 -2.71669,-1.49791 -0.8399,-0.50543 -1.87852,-1.19491 -2.30805,-1.53218 -0.42953,-0.33727 -1.19642,-0.96153 -1.7042,-1.38724 -0.50779,-0.42572 -1.43873,-1.36759 -2.06877,-2.09304 -0.63004,-0.72546 -1.66073,-2.08308 -2.29042,-3.01694 -0.629686,-0.93386 -1.429284,-2.35608 -1.77688,-3.1605 -0.400568,-0.927 -0.814713,-2.3672 -1.130973,-3.93298 -0.274439,-1.35873 -0.49898,-2.88434 -0.49898,-3.39024 0,-0.50591 0.08335,-1.5263 0.185235,-2.26754 0.101879,-0.74123 0.40187,-2.123 0.666648,-3.07059 0.264777,-0.94759 0.758541,-2.40554 1.097252,-3.23989 0.338712,-0.83435 1.096088,-2.29407 1.683068,-3.24382 0.58698,-0.94974 1.39831,-2.17655 1.80296,-2.72621 0.40464,-0.54968 1.07231,-1.32135 1.48371,-1.71483 0.41139,-0.39348 1.58084,-1.38812 2.59877,-2.21031 1.01794,-0.82219 1.79324,-1.54903 1.72289,-1.6152 -0.0703,-0.0662 -0.74814,0.0256 -1.50621,0.204 -0.75807,0.17837 -2.10291,0.48685 -2.98854,0.68553 -0.88562,0.19867 -2.20363,0.5541 -2.92891,0.78985 -0.72527,0.23574 -1.944975,0.77917 -2.71044,1.20763 -0.765466,0.42846 -2.280427,1.53592 -3.366579,2.46101 -1.086154,0.92509 -2.487966,2.2561 -3.115137,2.95778 -0.627173,0.70169 -1.60631,1.90743 -2.175859,2.67942 -0.569549,0.772 -1.346388,1.89618 -1.726306,2.49819 -0.379917,0.60201 -1.015269,1.77128 -1.411892,2.59838 -0.396621,0.82711 -1.083397,2.57153 -1.526168,3.8765 l -0.805039,2.37268 h -0.596643 -0.596645 l 0.01755,-1.03373 c 0.0096,-0.56856 0.188577,-1.73151 0.397612,-2.58434 0.209036,-0.85283 0.665379,-2.28713 1.014095,-3.18734 0.348718,-0.90021 0.972814,-2.29575 1.386883,-3.1012 0.414069,-0.80545 1.319533,-2.31729 2.012145,-3.35963 0.692612,-1.04235 1.834093,-2.52234 2.536625,-3.28886 0.702532,-0.7665 2.046377,-2.11163 2.986324,-2.98915 0.939946,-0.87753 2.445529,-2.08656 3.345738,-2.68674 0.90021,-0.60018 2.334515,-1.4123 3.187345,-1.80471 0.852831,-0.39241 2.442191,-0.97017 3.531921,-1.28392 1.08973,-0.31374 2.71786,-0.74007 3.61806,-0.9474 1.06227,-0.24465 2.69501,-0.43386 4.65181,-0.53906 1.65828,-0.0891 3.18949,-0.20122 3.4027,-0.24903 0.21321,-0.0478 0.38765,-0.20572 0.38765,-0.35089 0,-0.14517 -0.29074,-0.38725 -0.64608,-0.53797 -0.48802,-0.206982 -1.46805,-0.294332 -4.00572,-0.357052 -2.0669,-0.0511 -3.82369,-0.009 -4.56566,0.10975 -0.66331,0.10602 -1.43861,0.233942 -1.72288,0.284252 -0.28428,0.0503 -1.25341,0.28703 -2.15362,0.52604 -0.90021,0.23902 -2.25698,0.67475 -3.015048,0.96829 -0.758071,0.29355 -1.991068,0.83933 -2.739993,1.21285 -0.748924,0.37351 -2.051296,1.1057 -2.894157,1.62707 -0.842863,0.52137 -2.129591,1.41858 -2.859397,1.99379 -0.729807,0.57522 -2.497749,2.19634 -3.928764,3.60249 -1.431014,1.40615 -2.671495,2.55545 -2.756623,2.554 -0.08513,-10e-4 -0.266665,-0.0734 -0.403416,-0.15996 -0.202412,-0.12806 -0.210585,-0.24082 -0.04396,-0.60652 0.11257,-0.24706 0.530553,-0.89223 0.92885,-1.43371 0.3983,-0.54148 1.542267,-1.82721 2.542154,-2.85719 0.999886,-1.02997 2.360686,-2.31712 3.023998,-2.86033 0.663312,-0.54321 1.811713,-1.39401 2.552,-1.89067 0.740286,-0.49665 1.980766,-1.23959 2.756623,-1.65097 0.775855,-0.41138 2.22471,-1.05454 3.219678,-1.429252 0.994969,-0.3747 2.475215,-0.88242 3.289435,-1.12826 0.81422,-0.24584 2.55865,-0.64872 3.8765,-0.8953 2.24031,-0.41916 2.63134,-0.44247 6.01417,-0.35841 2.6921,0.0669 3.99286,0.17512 5.08252,0.42289 0.80545,0.18315 2.084701,0.5518 2.842771,0.81923 0.75807,0.26743 2.49563,1.05538 3.86124,1.751012 l 2.48293,1.26477 0.44598,-0.41401 c 0.24529,-0.2277 0.66234,-0.55132 0.92677,-0.71914 0.26444,-0.16782 0.5586,-0.450522 0.6537,-0.628212 0.14262,-0.26649 0.0131,-0.50397 -0.73923,-1.35591 -0.50167,-0.56805 -1.19045,-1.49064 -1.53063,-2.05019 -0.34017,-0.55954 -0.81741,-1.62468 -1.06051,-2.36697 -0.24311,-0.7423 -0.4846,-1.69851 -0.53665,-2.12492 -0.052,-0.42642 -0.10476,-1.20172 -0.11712,-1.72289 -0.0124,-0.52118 -0.0118,-1.14142 10e-4,-1.37831 l 0.0237,-0.43073 0.28454,0.40893 c 0.15649,0.22491 0.98587,1.02903 1.84306,1.78694 0.8572,0.7579 2.760249,2.16951 4.229009,3.1369 1.46877,0.96739 3.52331,2.251 4.56566,2.85247 1.04235,0.60147 3.04032,1.87446 4.43994,2.82886 1.39961,0.954412 3.1828,2.191792 3.96264,2.749732 0.77984,0.55795 1.96739,1.26741 2.639,1.57657 0.9295,0.42789 1.26583,0.67935 1.40841,1.05302 0.10302,0.26999 0.32033,0.91731 0.48291,1.43848 0.16258,0.52118 0.60498,1.56783 0.98311,2.3259 0.37814,0.75808 0.92694,1.7272 1.21956,2.15362 0.29262,0.42641 1.06185,1.29997 1.70939,1.94126 0.64755,0.64128 2.04549,1.89368 3.10654,2.78312 1.06106,0.88943 2.66079,2.2471 3.55497,3.01704 0.89418,0.76994 2.11527,1.64088 2.71355,1.9354 0.59827,0.29453 1.09412,0.62178 1.10188,0.72722 0.008,0.10544 0.004,0.65689 -0.009,1.22545 -0.0127,0.56855 -0.24212,1.8478 -0.50986,2.84276 -0.26774,0.99497 -0.58221,2.42687 -0.69881,3.182 -0.11661,0.75514 -0.27552,1.53999 -0.35313,1.74413 -0.0776,0.20414 -0.35998,0.42516 -0.62748,0.49116 -0.26749,0.066 -0.92903,0.3176 -1.47008,0.55911 -0.64892,0.28967 -1.13161,0.40201 -1.41823,0.33008 -0.23897,-0.06 -0.71477,-0.35514 -1.05733,-0.65592 -0.34257,-0.30077 -1.01622,-1.1331 -1.49702,-1.84961 -0.4808,-0.71652 -1.14009,-1.63037 -1.4651,-2.03078 -0.33433,-0.41191 -0.98758,-0.9221 -1.50444,-1.17497 -0.64741,-0.31675 -1.30735,-0.47495 -2.26551,-0.54307 l -1.352,-0.0961 1.91676,1.96025 c 1.23638,1.26443 2.08551,2.29662 2.39215,2.90784 0.26146,0.52118 0.69022,1.25771 0.95279,1.63675 0.26257,0.37903 0.64883,0.87006 0.85836,1.09117 0.20953,0.22111 0.31377,0.45957 0.23165,0.52993 -0.0821,0.0703 -0.62419,0.33524 -1.20459,0.58865 -0.5804,0.2534 -1.35922,0.46073 -1.73071,0.46073 -0.4447,0 -1.23191,-0.26514 -2.30436,-0.77612 -0.89591,-0.42686 -1.89911,-0.91142 -2.22935,-1.0768 -0.59693,-0.29894 -0.60157,-0.31026 -0.79334,-1.93744 -0.10609,-0.90021 -0.31047,-1.9081 -0.45417,-2.23976 -0.14371,-0.33165 -0.63257,-0.97609 -1.08636,-1.43208 -0.45379,-0.45599 -1.17841,-1.07217 -1.61026,-1.3693 -0.43185,-0.29712 -1.31907,-0.75748 -1.97159,-1.02303 -0.65253,-0.26554 -1.50788,-0.48189 -1.90078,-0.48076 -0.39291,0.001 -1.1408,0.1165 -1.66197,0.25638 -0.52117,0.13989 -1.33524,0.25468 -1.80903,0.25509 -0.4738,3.5e-4 -1.36539,-0.0769 -1.98133,-0.17171 -0.6863,-0.10568 -1.66117,-0.44253 -2.51796,-0.87003 -0.76895,-0.38367 -1.82291,-1.07622 -2.34213,-1.53899 -0.519219,-0.46277 -1.273329,-1.34682 -1.675799,-1.96457 -0.40248,-0.61774 -0.95421,-1.696 -1.22607,-2.39613 -0.33116,-0.85285 -0.56433,-1.90278 -0.70648,-3.18124 -0.16491,-1.48303 -0.16696,-2.24636 -0.009,-3.42548 0.15042,-1.12419 0.37715,-1.88014 0.87523,-2.91818 0.46593,-0.97101 1.0303,-1.78053 1.83899,-2.63778 0.641719,-0.68026 1.658299,-1.62796 2.259069,-2.106 0.6008,-0.47805 1.09234,-0.94004 1.09234,-1.02663 0,-0.0866 -0.18566,-0.15746 -0.41257,-0.15746 -0.22692,0 -0.92127,0.15712 -1.54302,0.34916 -0.62174,0.19203 -1.703059,0.73215 -2.402929,1.20025 -0.69987,0.4681 -1.60106,1.20755 -2.00265,1.64323 -0.40159,0.43567 -0.9997,1.35969 -1.32912,2.05337 -0.32943,0.69368 -0.75761,2.02609 -0.95151,2.96092 -0.28877,1.39216 -0.33666,2.1049 -0.26468,3.93943 0.0638,1.62659 0.19128,2.56992 0.46559,3.44578 0.20774,0.66331 0.68375,1.79731 1.05781,2.52001 0.37405,0.72269 1.12223,1.82251 1.66262,2.44405 0.54038,0.62153 1.29264,1.37561 1.67167,1.67573 0.37904,0.30011 1.20222,0.80485 1.829309,1.12163 1.05794,0.53443 1.15393,0.63069 1.33128,1.33502 0.10513,0.41748 0.50165,1.22406 0.88117,1.79239 0.37951,0.56833 1.40856,1.74183 2.28678,2.60778 0.87821,0.86596 2.13725,2.0017 2.79786,2.52387 0.66061,0.52218 2.56009,1.89529 4.22108,3.05136 1.66098,1.15607 3.64021,2.59585 4.39828,3.1995 0.75807,0.60366 2.09013,1.79499 2.96012,2.64741 0.87,0.85241 1.68406,1.68039 1.80903,1.83994 0.12498,0.15955 -0.0441,0.0928 -0.37578,-0.14837 -0.33166,-0.24115 -1.20642,-0.81021 -1.94392,-1.26458 -0.7375,-0.45436 -2.24934,-1.27505 -3.35964,-1.82373 -1.1103,-0.54869 -3.15363,-1.50601 -4.54073,-2.12738 -1.38711,-0.62136 -3.32536,-1.54977 -4.30723,-2.06313 -0.98186,-0.51337 -2.81681,-1.56309 -4.07766,-2.33272 -1.26084,-0.76963 -2.656379,-1.69042 -3.101199,-2.0462 -0.44481,-0.35578 -1.44707,-1.2186 -2.22724,-1.91737 -0.78016,-0.69878 -1.95074,-1.90179 -2.60127,-2.67335 -0.65054,-0.77156 -1.47757,-1.86802 -1.83785,-2.43657 -0.36029,-0.56856 -0.90486,-1.53768 -1.21016,-2.15362 -0.3053,-0.61593 -0.79175,-1.85641 -1.081,-2.75662 -0.28925,-0.90021 -0.61179,-2.41204 -0.71675,-3.35963 -0.10496,-0.94759 -0.20611,-2.18807 -0.22477,-2.75662 -0.0187,-0.56856 0.0246,-1.77027 0.0961,-2.67048 l 0.13006,-1.63674 -0.3457,0.4027 c -0.190131,0.22149 -0.578671,1.13 -0.863421,2.01893 -0.28475,0.88892 -0.60447,2.17526 -0.71048,2.85853 -0.11165,0.7196 -0.14902,2.00862 -0.0888,3.06359 0.0572,1.00171 0.21266,2.32725 0.34556,2.94564 0.13289,0.6184 0.43567,1.60192 0.67285,2.1856 0.23717,0.58369 0.869411,1.80579 1.404971,2.7158 0.53556,0.91 1.454,2.2129 2.04097,2.89534 0.58697,0.68243 1.48726,1.65119 2.00065,2.1528 0.51339,0.5016 1.56004,1.44393 2.3259,2.09405 0.76586,0.65012 2.13023,1.67473 3.03195,2.27692 0.901719,0.60218 2.684909,1.65105 3.962649,2.33083 1.27773,0.67978 3.25352,1.65966 4.39062,2.17752 1.13711,0.51786 2.95906,1.34334 4.04879,1.83441 1.08973,0.49106 2.77918,1.31316 3.75433,1.82688 0.97516,0.51373 2.44823,1.37567 3.27349,1.91543 0.82527,0.53977 2.08196,1.42097 2.79265,1.95823 0.71069,0.53727 1.80513,1.521 2.43207,2.18608 0.62695,0.66507 1.3433,1.6258 1.59189,2.13494 0.24858,0.50914 0.61742,1.58143 0.81965,2.38288 0.29223,1.15815 0.35105,1.79452 0.28664,3.1012 -0.0604,1.22489 -0.19282,1.91941 -0.5195,2.72419 -0.24116,0.59408 -0.73129,1.50531 -1.08918,2.02495 -0.35789,0.51964 -1.13488,1.40973 -1.72665,1.97797 l -1.07594,1.03318 h -1.37808 -1.37808 l -0.11797,-0.73223 c -0.0649,-0.40273 -0.34582,-1.62382 -0.62431,-2.71355 -0.27849,-1.08973 -0.66808,-2.48527 -0.86577,-3.1012 -0.19768,-0.61593 -0.73145,-1.87051 -1.18617,-2.78794 -0.45471,-0.91744 -1.2536,-2.31623 -1.77531,-3.10843 -0.5217,-0.7922 -1.60927,-2.17365 -2.41683,-3.06988 -0.80755,-0.89624 -1.83882,-1.93964 -2.29172,-2.31867 -0.4529,-0.37904 -1.5702,-1.27517 -2.4829,-1.9914 -0.91269,-0.71623 -2.42625,-1.78691 -3.36346,-2.37929 -0.93721,-0.59238 -2.78944,-1.71792 -4.11606,-2.50119 -1.326629,-0.78327 -3.160689,-1.8623 -4.075689,-2.39784 -0.91501,-0.53554 -2.26299,-1.44999 -2.99553,-2.03211 -0.73253,-0.58212 -1.93803,-1.68867 -2.67887,-2.459 -0.74085,-0.77033 -1.788961,-1.98207 -2.329141,-2.69276 -0.54017,-0.7107 -1.39031,-2.145 -1.88919,-3.18735 -0.49889,-1.04235 -1.06607,-2.47665 -1.26042,-3.18734 -0.19435,-0.7107 -0.43249,-1.98994 -0.52921,-2.84277 -0.0967,-0.85283 -0.17648,-2.23842 -0.17726,-3.07909 -8.6e-4,-0.84067 0.11802,-2.3525 0.26399,-3.35963 0.14597,-1.00713 0.50215,-2.60645 0.79151,-3.55404 0.28937,-0.94758 0.84505,-2.34312 1.23486,-3.10119 0.42175,-0.82017 1.13031,-1.82254 1.74975,-2.4753 0.57255,-0.60335 1.506181,-1.44909 2.074731,-1.87943 0.56855,-0.43033 1.28571,-1.01793 1.59367,-1.30577 0.30797,-0.28784 0.55994,-0.57737 0.55994,-0.64341 0,-0.066 -0.11594,-0.16455 -0.25765,-0.21893 -0.14171,-0.0544 -0.67764,-0.0212 -1.19095,0.0737 -0.51332,0.0949 -1.40382,0.36372 -1.97889,0.59739 -0.575081,0.23368 -1.492841,0.70743 -2.039471,1.05278 -0.54663,0.34536 -1.52307,1.05669 -2.16987,1.58074 -0.6468,0.52405 -1.6795,1.54008 -2.29488,2.25784 -0.61538,0.71775 -1.45898,1.82074 -1.87466,2.45107 -0.41569,0.63034 -1.02454,1.72789 -1.35302,2.43902 -0.32848,0.71114 -0.83886,2.04728 -1.13418,2.9692 -0.29532,0.92193 -0.62089,2.29999 -0.72349,3.06235 -0.1026,0.76236 -0.15275,2.44495 -0.11145,3.73908 0.0621,1.94434 0.1345,2.45504 0.41717,2.94078 0.27249,0.46824 0.46601,0.59835 0.9514,0.6396 0.37483,0.0318 0.68852,-0.0436 0.8151,-0.19615 0.15833,-0.19078 0.1611,-0.79844 0.012,-2.63612 -0.10656,-1.3135 -0.1441,-2.89213 -0.0834,-3.50806 0.0607,-0.61594 0.22109,-1.5463 0.35646,-2.06747 0.13538,-0.52117 0.52403,-1.60659 0.86368,-2.41204 0.33964,-0.80545 0.7099,-1.55857 0.8228,-1.67359 0.11289,-0.11502 0.29683,-0.15252 0.40873,-0.0833 0.15283,0.0945 0.16205,0.57536 0.037,1.93202 -0.0915,0.99342 -0.11948,3.20176 -0.0621,4.90742 0.0574,1.70566 0.18131,3.56638 0.27537,4.13493 0.0941,0.56856 0.36178,1.64442 0.59493,2.3908 0.23315,0.74639 0.84634,2.1807 1.36264,3.18735 0.5163,1.00665 1.47623,2.49634 2.13319,3.31042 0.65695,0.81408 1.8802,2.10762 2.71832,2.87453 0.838131,0.7669 1.893931,1.67574 2.346231,2.01964 0.4523,0.34389 1.46019,1.02203 2.23976,1.50698 0.77956,0.48494 1.86319,1.13902 2.40805,1.45351 0.54487,0.3145 1.43646,0.83192 1.98133,1.14984 0.54486,0.31793 1.747749,1.01073 2.673089,1.53958 0.92534,0.52884 2.43717,1.48773 3.35963,2.13085 0.92246,0.64313 2.57696,1.92324 3.67666,2.84469 1.0997,0.92144 2.38845,2.12525 2.86389,2.67513 0.47545,0.54988 1.3092,1.62001 1.85277,2.37808 0.54358,0.75808 1.26777,1.92103 1.60931,2.58434 0.34153,0.66331 0.87683,1.80994 1.18955,2.54807 0.31272,0.73812 0.7582,2.07186 0.98996,2.96385 0.23176,0.892 0.47329,2.01312 0.53674,2.49139 0.11024,0.83101 0.0972,0.87012 -0.2945,0.88214 -0.22541,0.007 -0.82443,0.0715 -1.33114,0.14356 z m 14.98571,-41.08888 c 0.0822,-0.0508 0.14942,-0.32285 0.14942,-0.60458 0,-0.28173 -0.10981,-0.77507 -0.24404,-1.09631 -0.13422,-0.32124 -0.43,-0.70592 -0.65728,-0.85484 -0.22727,-0.14891 -0.77646,-0.32054 -1.22041,-0.38139 -0.80597,-0.11047 -0.80718,-0.10987 -0.80718,0.40417 0,0.28314 0.17453,0.77824 0.38783,1.10022 0.22429,0.33856 0.77881,0.78353 1.31504,1.05525 0.50996,0.2584 0.99444,0.42827 1.07662,0.37748 z m -20.61139,-10.27311 c 0.0948,8.6e-4 0.36611,-0.0604 0.60301,-0.13624 0.2369,-0.0759 0.31443,-0.14573 0.17229,-0.15525 -0.14214,-0.01 -0.73922,-0.24476 -1.32684,-0.52275 -0.58763,-0.278 -1.42154,-0.83095 -1.85314,-1.22878 -0.43161,-0.39784 -1.08907,-1.17908 -1.46104,-1.73611 -0.41001,-0.61399 -0.75894,-1.40211 -0.88615,-2.0015 -0.11541,-0.5438 -0.25809,-1.4539 -0.31706,-2.02245 -0.10271,-0.99035 -0.11721,-1.01587 -0.34528,-0.608 -0.16139,0.28862 -0.24025,1.04303 -0.24483,2.34242 -0.006,1.74804 0.0348,2.00175 0.46629,2.88357 0.26047,0.53238 0.75929,1.19245 1.11001,1.46882 0.35033,0.27606 1.0324,0.7078 1.51572,0.95942 0.48331,0.25162 1.21985,0.52447 1.63674,0.60632 0.4169,0.0819 0.83552,0.1496 0.93028,0.15053 z M 98.664561,113.873 c 0.10807,-0.0357 0.2779,-0.88441 0.38914,-1.94474 0.10857,-1.03473 0.17199,-1.90836 0.14095,-1.94139 -0.031,-0.033 -0.25018,0.57082 -0.48697,1.34188 -0.28267,0.92044 -0.39695,1.60901 -0.33272,2.0048 0.054,0.33252 0.18382,0.57442 0.2896,0.53945 z m 17.051429,-3.39799 c 0.0812,0.001 0.0977,-0.13304 0.0367,-0.29887 -0.061,-0.16583 -0.3074,-0.80545 -0.54746,-1.42138 -0.24005,-0.61593 -0.61277,-1.32341 -0.82827,-1.57217 -0.21549,-0.24875 -0.59903,-0.58807 -0.85232,-0.75403 -0.31545,-0.20669 -0.94267,-0.32923 -1.99108,-0.38901 l -1.53055,-0.0873 0.48778,1.44431 c 0.37649,1.11477 0.62925,1.56738 1.1078,1.9837 0.34101,0.29667 0.86008,0.5874 1.15349,0.64609 0.2934,0.0587 0.93081,0.10788 1.41645,0.10933 0.48564,0.001 0.99927,0.0778 1.14141,0.16965 0.14214,0.0919 0.32488,0.1682 0.40608,0.16965 z m -24.810659,54.83225 -5.022071,0.0444 -0.10352,-0.75627 c -0.0569,-0.41595 -0.10352,-0.89771 -0.10352,-1.07057 0,-0.27931 0.18677,-0.31978 1.67782,-0.3636 1.37485,-0.0404 1.68733,-0.099 1.73047,-0.32462 0.0383,-0.20009 -0.0709,-0.2687 -0.39957,-0.25114 -0.24873,0.0133 -1.07621,-0.0362 -1.83886,-0.10989 -0.76264,-0.0737 -2.01623,-0.30099 -2.78577,-0.50502 -0.76953,-0.20403 -2.18448,-0.73804 -3.14433,-1.18669 -0.95986,-0.44865 -2.27787,-1.1605 -2.92892,-1.5819 -0.65104,-0.42139 -1.89618,-1.35938 -2.76696,-2.08441 -0.87079,-0.72503 -2.09998,-1.84375 -2.73154,-2.48603 -0.63156,-0.64229 -1.867645,-2.05939 -2.746847,-3.14911 -0.879201,-1.08973 -1.7627,-2.2903 -1.963332,-2.66793 -0.200634,-0.37763 -0.364787,-0.86492 -0.364787,-1.08287 0,-0.35519 0.04018,-0.37558 0.38765,-0.19675 0.213207,0.10973 1.24048,1.02343 2.282828,2.03045 1.042348,1.00702 2.721278,2.55184 3.730968,3.43292 1.00968,0.88108 2.64483,2.24323 3.63365,3.02699 0.98883,0.78376 2.60492,1.93145 3.59131,2.55042 0.9864,0.61897 2.2974,1.36712 2.91333,1.66256 0.61593,0.29544 1.66259,0.65719 2.3259,0.80391 0.66331,0.14671 1.38696,0.30727 1.60811,0.3568 0.27239,0.061 0.36312,0.027 0.28127,-0.10541 -0.0665,-0.10752 -0.60258,-0.41164 -1.19141,-0.67583 -0.58884,-0.26419 -1.35708,-0.73187 -1.70721,-1.03929 -0.35013,-0.30742 -0.90915,-1.02398 -1.24226,-1.59235 -0.33312,-0.56838 -0.57928,-1.05979 -0.54704,-1.09204 0.0322,-0.0322 0.55881,0.13656 1.17015,0.37512 0.61134,0.23855 1.73176,0.71331 2.48983,1.05502 0.75808,0.34171 2.23115,1.08556 3.273491,1.65299 1.04235,0.56743 2.6832,1.57033 3.64634,2.22867 0.96315,0.65834 1.90714,1.36413 2.09777,1.56842 0.19063,0.20429 0.39868,0.58126 0.46232,0.83773 0.0978,0.39398 0.053,0.48061 -0.28874,0.55861 -0.22244,0.0508 -2.66438,0.1123 -5.42652,0.13672 z m -27.125164,-1.87845 c -0.653166,0.11947 -0.843396,0.0919 -1.093921,-0.15864 -0.289488,-0.28949 -0.28488,-0.31726 0.101504,-0.61153 0.222621,-0.16955 0.759753,-0.40015 1.193628,-0.51245 0.669521,-0.1733 0.848301,-0.31623 1.181754,-0.94479 0.21609,-0.40734 0.520105,-0.8544 0.675593,-0.99347 0.155485,-0.13907 0.554057,-0.26758 0.885713,-0.28557 0.331656,-0.018 0.819742,-0.0249 1.084636,-0.0153 0.264894,0.01 0.671927,0.20776 0.904517,0.44035 0.326176,0.32617 0.422892,0.60378 0.422892,1.21385 0,0.61007 -0.09672,0.88768 -0.422892,1.21385 -0.23259,0.23259 -0.600858,0.43752 -0.818372,0.45539 -0.217515,0.0179 -1.054486,0.0373 -1.859937,0.0431 -0.80545,0.006 -1.820253,0.0757 -2.255115,0.1552 z m 72.113573,-0.91992 c -0.15413,0 -0.50687,-0.22663 -0.78386,-0.50362 -0.32839,-0.32839 -0.50361,-0.67998 -0.50361,-1.0105 0,-0.27878 0.15383,-0.70245 0.34185,-0.94148 0.18802,-0.23903 0.53758,-0.48372 0.77679,-0.54375 0.25497,-0.064 0.64045,-0.003 0.93163,0.14769 0.27319,0.14127 0.57861,0.4918 0.67871,0.77895 0.12782,0.36665 0.12782,0.67756 0,1.04421 -0.1001,0.28715 -0.40234,0.63604 -0.67164,0.7753 -0.26929,0.13926 -0.61574,0.2532 -0.76987,0.2532 z m 19.77686,-0.17229 c -0.26474,0 -0.38746,-0.0791 -0.33419,-0.21536 0.0463,-0.11845 0.20649,-0.75808 0.35597,-1.42139 0.14948,-0.66331 0.42861,-2.09762 0.62029,-3.18734 0.27476,-1.5621 0.3492,-2.74687 0.35179,-5.59939 0.003,-2.82171 -0.0724,-4.07313 -0.3405,-5.68554 -0.18908,-1.1371 -0.50648,-2.68474 -0.70533,-3.4392 -0.19886,-0.75445 -0.58729,-1.95617 -0.86319,-2.67048 -0.2759,-0.7143 -0.81604,-1.91276 -1.20031,-2.66324 -0.38428,-0.75047 -1.04314,-1.88264 -1.46415,-2.51593 -0.42101,-0.63328 -1.3337,-1.69119 -2.02821,-2.35091 -0.69451,-0.65972 -1.68048,-1.40765 -2.19105,-1.66208 -0.81357,-0.40542 -1.13289,-0.46259 -2.58363,-0.46259 -1.52038,0 -1.71778,-0.0396 -2.42129,-0.48631 -0.51331,-0.3259 -0.9317,-0.7914 -1.26842,-1.41122 -0.47684,-0.87776 -0.49255,-0.97216 -0.30806,-1.85173 0.10692,-0.50975 0.36385,-1.20099 0.57096,-1.5361 0.2071,-0.3351 0.77495,-0.86413 1.26188,-1.17561 0.48693,-0.31149 1.19264,-0.65166 1.56825,-0.75594 0.3756,-0.10427 1.1249,-0.19002 1.6651,-0.19055 0.5402,-5.2e-4 1.39303,0.0836 1.89518,0.18685 0.50214,0.10329 1.53606,0.48514 2.29758,0.84855 0.76152,0.36342 1.85145,1.07358 2.42206,1.57816 0.57062,0.50457 1.50039,1.47341 2.06617,2.15298 0.56578,0.67957 1.43571,1.97895 1.93318,2.8875 0.49746,0.90856 1.13021,2.26412 1.4061,3.01236 0.27588,0.74824 0.6564,2.01219 0.84558,2.80877 0.18919,0.79658 0.46675,2.15592 0.6168,3.02076 0.19267,1.11044 0.27912,2.80302 0.29426,5.76094 0.0126,2.47002 -0.0638,4.78936 -0.18641,5.65297 -0.11431,0.80545 -0.39915,2.31728 -0.63296,3.35963 -0.23382,1.04235 -0.70459,2.67048 -1.04618,3.61807 -0.34158,0.94759 -0.85197,2.18807 -1.13419,2.75662 -0.28222,0.56856 -0.63273,1.16941 -0.77891,1.33524 -0.14619,0.16583 -0.45406,0.30151 -0.68417,0.30151 z m 7.96085,-5.55721 c -0.28125,0.0232 -0.64399,-0.0371 -0.80609,-0.13399 -0.1621,-0.0969 -0.36906,-0.44537 -0.45991,-0.7744 -0.1025,-0.37123 -0.10487,-0.81667 -0.006,-1.17385 0.0983,-0.35602 0.32613,-0.65177 0.59723,-0.7753 0.24106,-0.10983 0.59324,-0.1997 0.7826,-0.1997 0.18937,0 0.5346,0.1903 0.76719,0.42289 0.2544,0.2544 0.4229,0.6218 0.4229,0.92211 0,0.27457 -0.17692,0.76266 -0.39315,1.08464 -0.27954,0.41624 -0.54093,0.59761 -0.90452,0.6276 z M 56.124693,147.69237 c -0.490723,0 -0.765509,-0.13202 -1.219274,-0.58578 -0.492397,-0.4924 -0.585783,-0.70923 -0.585783,-1.36009 0,-0.61667 0.101764,-0.88325 0.499847,-1.3094 0.367137,-0.39302 0.653028,-0.53492 1.076805,-0.53444 0.317327,3.4e-4 0.830865,0.15545 1.141194,0.34466 0.310327,0.1892 0.644974,0.55637 0.743657,0.81593 0.09868,0.25956 0.129815,0.73637 0.06918,1.05958 -0.06063,0.32321 -0.331168,0.80858 -0.601188,1.0786 -0.361705,0.3617 -0.657706,0.49094 -1.124438,0.49094 z m -1.977346,-8.44216 c -0.34007,0 -0.590489,-0.12861 -0.754766,-0.38765 -0.185245,-0.2921 -0.260543,-1.21576 -0.305477,-3.74728 l -0.05964,-3.35963 0.475445,-0.0547 c 0.340218,-0.0391 0.616045,0.0859 0.969784,0.43966 0.391633,0.39164 0.517623,0.70726 0.606414,1.51914 0.06164,0.56363 0.128525,1.84327 0.148632,2.84363 0.02995,1.49028 -0.01836,1.90266 -0.267458,2.28283 -0.216524,0.33046 -0.450476,0.46398 -0.812939,0.46398 z m 109.424103,-0.17229 c -0.26626,0 -0.60591,-0.13567 -0.75479,-0.3015 -0.14888,-0.16583 -0.38707,-0.61163 -0.52931,-0.99066 -0.14224,-0.37904 -0.53639,-1.57175 -0.87589,-2.65047 -0.3395,-1.07873 -0.61728,-2.14354 -0.61728,-2.36626 0,-0.22271 0.22277,-0.65426 0.49504,-0.95898 0.38482,-0.43068 0.63392,-0.55404 1.11878,-0.55404 0.35874,0 0.82551,0.14973 1.09864,0.35242 0.26119,0.19383 0.5699,0.63606 0.68603,0.98273 0.11876,0.35455 0.22936,1.7418 0.25279,3.17089 0.0292,1.78333 -0.0227,2.65612 -0.17413,2.92822 -0.14408,0.25884 -0.37665,0.38765 -0.69988,0.38765 z M 54.118778,116.85266 c -0.188382,0 -0.566263,-0.22375 -0.839736,-0.49722 -0.445725,-0.44573 -0.480105,-0.55725 -0.331954,-1.07681 0.0909,-0.31877 0.296664,-0.6765 0.45726,-0.79495 0.160596,-0.11844 0.45618,-0.21536 0.656855,-0.21536 0.200675,0 0.496259,0.0969 0.656855,0.21536 0.160595,0.11845 0.363929,0.4677 0.451855,0.77611 0.137046,0.4807 0.09788,0.6344 -0.274379,1.0768 -0.238832,0.28384 -0.588371,0.51607 -0.776756,0.51607 z m 72.601992,-10.18861 c -0.25878,-0.013 -0.94485,-0.0778 -1.5246,-0.14399 -0.72994,-0.0834 -1.4187,-0.3193 -2.23975,-0.76714 -0.65212,-0.35569 -1.43765,-0.88758 -1.74561,-1.18197 -0.30797,-0.29439 -0.55994,-0.63634 -0.55994,-0.75989 0,-0.12355 0.0658,-0.22464 0.14613,-0.22464 0.0804,0 0.87506,0.15385 1.76597,0.34188 0.89775,0.18948 2.29373,0.34308 3.13161,0.34458 1.47323,0.003 1.51619,0.0143 1.68421,0.45617 0.0948,0.24942 0.13888,0.57892 0.0979,0.73223 -0.041,0.15332 -0.12197,0.49196 -0.17996,0.75255 -0.0855,0.38398 -0.19463,0.46932 -0.57595,0.45022 z m 3.61317,-0.56058 c -0.48275,0.0966 -0.56537,0.0539 -0.72883,-0.37601 -0.1014,-0.2667 -0.16119,-0.71113 -0.13286,-0.98761 0.0428,-0.41801 0.21859,-0.58967 1.04317,-1.01878 0.69528,-0.36182 1.12187,-0.4834 1.42725,-0.40675 0.23956,0.0601 0.5229,0.301 0.62965,0.53529 0.14229,0.31231 0.14328,0.53746 0.004,0.84383 -0.10471,0.22982 -0.52951,0.6166 -0.94399,0.8595 -0.41448,0.2429 -0.99862,0.49064 -1.29808,0.55053 z m -5.40885,-3.91637 c -0.69254,-0.0116 -1.72186,-0.0884 -2.28738,-0.17078 -0.56552,-0.0824 -1.72847,-0.35014 -2.58433,-0.59503 -0.85587,-0.2449 -2.23262,-0.74433 -3.05944,-1.10986 -0.82683,-0.365532 -2.64878,-1.417712 -4.04879,-2.338172 -1.40001,-0.92047 -3.43707,-2.17844 -4.5268,-2.7955 -1.08972,-0.61705 -2.27142,-1.28405 -2.62598,-1.48222 -0.35456,-0.19817 -0.6453,-0.44668 -0.64608,-0.55225 -8.6e-4,-0.10557 0.348,-0.23984 0.77508,-0.29838 0.43448,-0.0595 1.33697,8.6e-4 2.04891,0.13702 0.69982,0.1339 2.1142,0.59059 3.14306,1.01488 1.02887,0.42429 3.38251,1.51055 5.2303,2.41392 1.8478,0.90337 4.05741,1.85439 4.91024,2.11339 1.4362,0.43615 1.7794,0.47149 4.6518,0.4791 l 3.1012,0.008 1.33898,-0.55156 c 0.73645,-0.30336 1.95583,-0.94725 2.70975,-1.43087 0.78395,-0.50288 1.89944,-1.44486 2.60572,-2.2004 0.67923,-0.72659 1.43103,-1.61673 1.67067,-1.97808 0.32766,-0.49408 0.46935,-0.59687 0.5714,-0.41451 0.0746,0.13336 0.0528,0.54531 -0.0485,0.91543 -0.10132,0.37012 -0.41414,1.13812 -0.69514,1.70667 -0.28101,0.56856 -0.83188,1.44987 -1.22417,1.95847 -0.39229,0.50861 -1.1937,1.33233 -1.78091,1.8305 -0.58722,0.49817 -1.48174,1.14188 -1.98784,1.430462 -0.5061,0.28858 -1.50166,0.75473 -2.21235,1.03589 -0.71069,0.28115 -1.84973,0.59747 -2.53119,0.70293 -0.68147,0.10546 -1.80565,0.18229 -2.49819,0.17073 z M 96.401201,99.084728 c -0.0711,-0.0122 -1.29216,-0.61439 -2.71355,-1.33819 -1.42138,-0.72381 -3.35963,-1.56859 -4.307221,-1.8773 -0.94759,-0.30871 -2.45942,-0.70684 -3.35963,-0.88472 -0.90021,-0.17789 -2.47403,-0.41647 -3.49737,-0.53018 -1.10806,-0.12313 -2.50176,-0.15843 -3.44578,-0.0873 -0.87183,0.0657 -2.34518,0.26402 -3.2741,0.44069 -0.92891,0.17668 -2.32445,0.51552 -3.1012,0.75299 -0.86149,0.26338 -1.882589,0.74445 -2.618278,1.23356 -0.663313,0.441 -1.465335,0.91326 -1.782272,1.04947 -0.507925,0.2183 -0.624668,0.21594 -0.9846,-0.0199 -0.224593,-0.14716 -0.494118,-0.42782 -0.598946,-0.62369 -0.148153,-0.27683 -0.129759,-0.44898 0.0826,-0.77309 0.15026,-0.22932 0.580208,-0.57357 0.955442,-0.765 0.375234,-0.19143 1.595198,-0.70287 2.711031,-1.13652 1.245383,-0.48401 3.026713,-0.99585 4.613123,-1.32554 2.41742,-0.50238 2.82357,-0.53749 6.28855,-0.54375 3.42857,-0.006 3.84714,0.0275 5.62507,0.452 1.05648,0.25227 2.655051,0.76544 3.552391,1.14038 0.89734,0.37494 2.18054,1.00235 2.85155,1.39425 0.81556,0.47631 1.53701,1.08618 2.17621,1.83963 0.52591,0.61991 0.9562,1.239 0.9562,1.37574 0,0.13675 -0.0581,0.23865 -0.12922,0.22645 z m 25.541829,-3.62878 c -0.85283,0.005 -2.09331,-0.0926 -2.75662,-0.21777 -0.66331,-0.12513 -1.59367,-0.38495 -2.06747,-0.57737 -0.47379,-0.19242 -1.69696,-0.74655 -2.71814,-1.23139 -1.02118,-0.48485 -2.46908,-1.10734 -3.21754,-1.3833 -0.74847,-0.27597 -1.99544,-0.62214 -2.77106,-0.76928 -0.77562,-0.14713 -1.96889,-0.26751 -2.65171,-0.26751 -0.68282,0 -1.6924,0.0834 -2.24351,0.18523 -1.00033,0.18492 -1.00362,0.18414 -1.9468,-0.46546 l -0.94479,-0.6507 0.46145,-0.36795 c 0.25381,-0.20237 1.05748,-0.58237 1.78595,-0.84443 0.9306,-0.33478 1.78562,-0.50184 2.87509,-0.56176 1.14847,-0.0632 1.97781,0.003 3.19795,0.25578 0.99891,0.20681 2.55873,0.72948 3.96265,1.32781 1.27341,0.54272 3.0273,1.28875 3.89754,1.65785 0.87024,0.36909 2.18825,0.78704 2.92891,0.92877 0.74066,0.14173 1.88937,0.25498 2.55268,0.25167 0.66331,-0.003 1.6712,-0.10702 2.23976,-0.23046 0.56855,-0.12344 1.60012,-0.52246 2.29236,-0.88671 0.83686,-0.44033 1.59617,-1.02309 2.2659,-1.73904 0.554,-0.59223 1.05366,-1.03039 1.11035,-0.97371 0.0567,0.0567 0.10231,0.26459 0.10138,0.46201 -8.6e-4,0.19741 -0.18323,0.74658 -0.40514,1.22038 -0.2219,0.47379 -0.69563,1.21033 -1.05272,1.63674 -0.3571,0.42642 -1.08577,1.10374 -1.61926,1.50517 -0.53349,0.40143 -1.59022,0.95393 -2.34829,1.22777 -1.12058,0.4048 -1.66827,0.49973 -2.92892,0.50766 z m -28.023189,-1.44387 c -0.0329,0.0275 -1.06779,-0.44437 -2.29965,-1.04866 -1.23187,-0.60429 -2.721071,-1.24888 -3.309331,-1.43242 -0.58826,-0.18353 -1.6543,-0.38669 -2.36897,-0.45145 -0.71467,-0.0648 -1.29941,-0.17616 -1.29941,-0.24756 0,-0.0714 0.29074,-0.24551 0.64609,-0.38691 0.35534,-0.1414 1.25864,-0.3928 2.00733,-0.55866 0.99159,-0.21967 1.7144,-0.27171 2.661671,-0.19164 0.71523,0.0605 1.75017,0.23612 2.29989,0.39036 l 0.99947,0.28044 v 0.83228 c 0,0.45775 0.16263,1.26695 0.36141,1.79822 0.19877,0.53127 0.33444,0.98846 0.3015,1.016 z"
       id="path1034" />
  </g>
</svg>
